<?xml version="1.0" encoding="UTF-8" standalone="no"?>
<!DOCTYPE svg PUBLIC "-//W3C//DTD SVG 1.1//EN"
 "http://www.w3.org/Graphics/SVG/1.1/DTD/svg11.dtd">
<!-- Generated by graphviz version 2.40.1 (20161225.0304)
 -->
<!-- Title: dependencies Pages: 1 -->
<svg width="544pt" height="290pt"
 viewBox="0.00 0.00 544.00 290.00" xmlns="http://www.w3.org/2000/svg" xmlns:xlink="http://www.w3.org/1999/xlink">
<g id="graph0" class="graph" transform="scale(1 1) rotate(0) translate(4 286)">
<title>dependencies</title>
<polygon fill="#ffffff" stroke="transparent" points="-4,4 -4,-286 540,-286 540,4 -4,4"/>
<text text-anchor="start" x="247.0091" y="-42.4" font-family="sans-serif" font-weight="bold" font-size="14.00" fill="#000000">Legend</text>
<polygon fill="#ffffb3" stroke="transparent" points="34,-10 34,-30 54,-30 54,-10 34,-10"/>
<text text-anchor="start" x="57.629" y="-15.4" font-family="sans-serif" font-size="14.00" fill="#000000"> &#160;Declarations</text>
<polygon fill="#8dd3c7" stroke="transparent" points="147,-10 147,-30 167,-30 167,-10 147,-10"/>
<text text-anchor="start" x="170.7251" y="-15.4" font-family="sans-serif" font-size="14.00" fill="#000000"> &#160;Module</text>
<polygon fill="#80b1d3" stroke="transparent" points="233,-10 233,-30 253,-30 253,-10 233,-10"/>
<text text-anchor="start" x="256.7812" y="-15.4" font-family="sans-serif" font-size="14.00" fill="#000000"> &#160;Bootstrap</text>
<polygon fill="#fdb462" stroke="transparent" points="330,-10 330,-30 350,-30 350,-10 330,-10"/>
<text text-anchor="start" x="353.6732" y="-15.4" font-family="sans-serif" font-size="14.00" fill="#000000"> &#160;Providers</text>
<polygon fill="#fb8072" stroke="transparent" points="426,-10 426,-30 446,-30 446,-10 426,-10"/>
<text text-anchor="start" x="449.7258" y="-15.4" font-family="sans-serif" font-size="14.00" fill="#000000"> &#160;Exports</text>
<g id="clust1" class="cluster">
<title>cluster_AppModule</title>
<polygon fill="none" stroke="#000000" stroke-dasharray="1,5" points="8,-70 8,-274 252,-274 252,-70 8,-70"/>
</g>
<g id="clust2" class="cluster">
<title>cluster_AppModule_declarations</title>
<polygon fill="none" stroke="#000000" points="16,-78 16,-130 138,-130 138,-78 16,-78"/>
</g>
<g id="clust4" class="cluster">
<title>cluster_AppModule_imports</title>
<polygon fill="none" stroke="#000000" points="146,-78 146,-130 244,-130 244,-78 146,-78"/>
</g>
<g id="clust6" class="cluster">
<title>cluster_AppModule_bootstrap</title>
<polygon fill="none" stroke="#000000" points="68,-214 68,-266 192,-266 192,-214 68,-214"/>
</g>
<g id="clust8" class="cluster">
<title>cluster_GistModule</title>
<polygon fill="none" stroke="#000000" stroke-dasharray="1,5" points="260,-138 260,-206 528,-206 528,-138 260,-138"/>
</g>
<g id="clust9" class="cluster">
<title>cluster_GistModule_declarations</title>
<polygon fill="none" stroke="#000000" points="400,-146 400,-198 520,-198 520,-146 400,-146"/>
</g>
<g id="clust12" class="cluster">
<title>cluster_GistModule_exports</title>
<polygon fill="none" stroke="#000000" points="268,-146 268,-198 392,-198 392,-146 268,-146"/>
</g>
<!-- AppComponent -->
<g id="node1" class="node">
<title>AppComponent</title>
<polygon fill="#ffffb3" stroke="#000000" points="129.9399,-122 24.0601,-122 24.0601,-86 129.9399,-86 129.9399,-122"/>
<text text-anchor="middle" x="77" y="-99.8" font-family="Times,serif" font-size="14.00" fill="#000000">AppComponent</text>
</g>
<!-- AppModule -->
<g id="node2" class="node">
<title>AppModule</title>
<polygon fill="#8dd3c7" stroke="#000000" points="171.6571,-190 168.6571,-194 147.6571,-194 144.6571,-190 88.3429,-190 88.3429,-154 171.6571,-154 171.6571,-190"/>
<text text-anchor="middle" x="130" y="-167.8" font-family="Times,serif" font-size="14.00" fill="#000000">AppModule</text>
</g>
<!-- AppComponent&#45;&gt;AppModule -->
<g id="edge1" class="edge">
<title>AppComponent&#45;&gt;AppModule</title>
<path fill="none" stroke="#000000" d="M108.9457,-122.2228C108.9457,-122.2228 108.9457,-143.7269 108.9457,-143.7269"/>
<polygon fill="#000000" stroke="#000000" points="105.4457,-143.7269 108.9457,-153.7269 112.4457,-143.727 105.4457,-143.7269"/>
</g>
<!-- AppComponent  -->
<g id="node4" class="node">
<title>AppComponent </title>
<polygon fill="#80b1d3" stroke="#000000" points="184.439,-258 75.561,-258 75.561,-222 184.439,-222 184.439,-258"/>
<text text-anchor="middle" x="130" y="-235.8" font-family="Times,serif" font-size="14.00" fill="#000000">AppComponent </text>
</g>
<!-- AppModule&#45;&gt;AppComponent  -->
<g id="edge3" class="edge">
<title>AppModule&#45;&gt;AppComponent </title>
<path fill="none" stroke="#000000" stroke-dasharray="1,5" d="M130,-190.2228C130,-190.2228 130,-211.7269 130,-211.7269"/>
<polygon fill="#000000" stroke="#000000" points="126.5001,-211.7269 130,-221.7269 133.5001,-211.727 126.5001,-211.7269"/>
</g>
<!-- GistModule -->
<g id="node3" class="node">
<title>GistModule</title>
<polygon fill="#8dd3c7" stroke="#000000" points="236.3823,-122 233.3823,-126 212.3823,-126 209.3823,-122 153.6177,-122 153.6177,-86 236.3823,-86 236.3823,-122"/>
<text text-anchor="middle" x="195" y="-99.8" font-family="Times,serif" font-size="14.00" fill="#000000">GistModule</text>
</g>
<!-- GistModule&#45;&gt;AppModule -->
<g id="edge2" class="edge">
<title>GistModule&#45;&gt;AppModule</title>
<path fill="none" stroke="#000000" d="M162.6936,-122.2228C162.6936,-122.2228 162.6936,-143.7269 162.6936,-143.7269"/>
<polygon fill="#000000" stroke="#000000" points="159.1936,-143.7269 162.6936,-153.7269 166.1936,-143.727 159.1936,-143.7269"/>
</g>
<!-- GistComponent  -->
<g id="node6" class="node">
<title>GistComponent </title>
<polygon fill="#fb8072" stroke="#000000" points="384.1649,-190 275.8351,-190 275.8351,-154 384.1649,-154 384.1649,-190"/>
<text text-anchor="middle" x="330" y="-167.8" font-family="Times,serif" font-size="14.00" fill="#000000">GistComponent </text>
</g>
<!-- GistModule&#45;&gt;GistComponent  -->
<g id="edge5" class="edge">
<title>GistModule&#45;&gt;GistComponent </title>
<path fill="none" stroke="#000000" stroke-dasharray="5,2" d="M210.4553,-122.2228C210.4553,-142.3652 210.4553,-172 210.4553,-172 210.4553,-172 265.824,-172 265.824,-172"/>
<polygon fill="#000000" stroke="#000000" points="265.824,-175.5001 275.824,-172 265.824,-168.5001 265.824,-175.5001"/>
</g>
<!-- GistComponent -->
<g id="node5" class="node">
<title>GistComponent</title>
<polygon fill="#ffffb3" stroke="#000000" points="512.1653,-190 407.8347,-190 407.8347,-154 512.1653,-154 512.1653,-190"/>
<text text-anchor="middle" x="460" y="-167.8" font-family="Times,serif" font-size="14.00" fill="#000000">GistComponent</text>
</g>
<!-- GistComponent&#45;&gt;GistModule -->
<g id="edge4" class="edge">
<title>GistComponent&#45;&gt;GistModule</title>
<path fill="none" stroke="#000000" d="M460,-153.7772C460,-133.6348 460,-104 460,-104 460,-104 246.4063,-104 246.4063,-104"/>
<polygon fill="#000000" stroke="#000000" points="246.4063,-100.5001 236.4063,-104 246.4062,-107.5001 246.4063,-100.5001"/>
</g>
</g>
</svg>
